<mxfile host="app.diagrams.net" agent="Mozilla/5.0 (Windows NT 10.0; Win64; x64) AppleWebKit/537.36 (KHTML, like Gecko) Chrome/138.0.0.0 Safari/537.36" version="28.0.6">
  <diagram name="P치gina-1" id="1EhDcoJ5kEegcFzZ6UgI">
    <mxGraphModel grid="1" page="1" gridSize="10" guides="1" tooltips="1" connect="1" arrows="1" fold="1" pageScale="1" pageWidth="827" pageHeight="1169" math="0" shadow="0">
      <root>
        <mxCell id="0" />
        <mxCell id="1" parent="0" />
        <mxCell id="lx61-Ug0AsFX759e72W0-1" style="rounded=0;orthogonalLoop=1;jettySize=auto;html=1;entryX=0.5;entryY=0;entryDx=0;entryDy=0;" edge="1" parent="1" source="lx61-Ug0AsFX759e72W0-3" target="lx61-Ug0AsFX759e72W0-6">
          <mxGeometry relative="1" as="geometry" />
        </mxCell>
        <mxCell id="lx61-Ug0AsFX759e72W0-3" value="&lt;font style=&quot;padding: 0px; margin: 0px; text-align: left; vertical-align: inherit;&quot;&gt;&lt;font style=&quot;vertical-align: inherit;&quot;&gt;&lt;font style=&quot;vertical-align: inherit;&quot;&gt;:Administrador&lt;/font&gt;&lt;/font&gt;&lt;/font&gt;" style="html=1;whiteSpace=wrap;" vertex="1" parent="1">
          <mxGeometry x="414" y="110" width="110" height="50" as="geometry" />
        </mxCell>
        <mxCell id="lx61-Ug0AsFX759e72W0-4" style="rounded=0;orthogonalLoop=1;jettySize=auto;html=1;entryX=0.571;entryY=-0.028;entryDx=0;entryDy=0;entryPerimeter=0;" edge="1" parent="1" source="lx61-Ug0AsFX759e72W0-6" target="lx61-Ug0AsFX759e72W0-10">
          <mxGeometry relative="1" as="geometry">
            <mxPoint x="575" y="480" as="targetPoint" />
          </mxGeometry>
        </mxCell>
        <mxCell id="lx61-Ug0AsFX759e72W0-6" value="&lt;font style=&quot;padding: 0px; margin: 0px; text-align: left; vertical-align: inherit;&quot;&gt;&lt;font style=&quot;vertical-align: inherit;&quot;&gt;&lt;font style=&quot;vertical-align: inherit;&quot;&gt;:UI_Cuenta&lt;/font&gt;&lt;/font&gt;&lt;/font&gt;" style="html=1;whiteSpace=wrap;" vertex="1" parent="1">
          <mxGeometry x="405" y="330" width="130" height="50" as="geometry" />
        </mxCell>
        <mxCell id="lx61-Ug0AsFX759e72W0-7" style="rounded=0;orthogonalLoop=1;jettySize=auto;html=1;exitX=0.75;exitY=1;exitDx=0;exitDy=0;" edge="1" parent="1" source="lx61-Ug0AsFX759e72W0-10">
          <mxGeometry relative="1" as="geometry">
            <mxPoint x="608" y="620" as="targetPoint" />
          </mxGeometry>
        </mxCell>
        <mxCell id="lx61-Ug0AsFX759e72W0-47" style="edgeStyle=orthogonalEdgeStyle;rounded=0;orthogonalLoop=1;jettySize=auto;html=1;exitX=1;exitY=0.5;exitDx=0;exitDy=0;entryX=0.5;entryY=0;entryDx=0;entryDy=0;" edge="1" parent="1" source="lx61-Ug0AsFX759e72W0-10" target="lx61-Ug0AsFX759e72W0-46">
          <mxGeometry relative="1" as="geometry" />
        </mxCell>
        <mxCell id="lx61-Ug0AsFX759e72W0-10" value="&lt;font style=&quot;padding: 0px; margin: 0px; text-align: left; vertical-align: inherit;&quot;&gt;&lt;font style=&quot;vertical-align: inherit;&quot;&gt;&lt;font style=&quot;vertical-align: inherit;&quot;&gt;:SistemaCuenta&lt;/font&gt;&lt;/font&gt;&lt;/font&gt;" style="html=1;whiteSpace=wrap;" vertex="1" parent="1">
          <mxGeometry x="495" y="480" width="150" height="50" as="geometry" />
        </mxCell>
        <mxCell id="lx61-Ug0AsFX759e72W0-36" style="edgeStyle=orthogonalEdgeStyle;rounded=0;orthogonalLoop=1;jettySize=auto;html=1;exitX=0;exitY=0.5;exitDx=0;exitDy=0;entryX=0;entryY=0.5;entryDx=0;entryDy=0;" edge="1" parent="1" source="lx61-Ug0AsFX759e72W0-12" target="lx61-Ug0AsFX759e72W0-10">
          <mxGeometry relative="1" as="geometry">
            <Array as="points">
              <mxPoint x="440" y="645" />
              <mxPoint x="440" y="505" />
            </Array>
          </mxGeometry>
        </mxCell>
        <mxCell id="lx61-Ug0AsFX759e72W0-12" value="&lt;span style=&quot;text-align: left;&quot;&gt;&lt;font style=&quot;vertical-align: inherit;&quot;&gt;&lt;font style=&quot;vertical-align: inherit;&quot;&gt;&amp;nbsp;:BD_Usuarios&lt;/font&gt;&lt;/font&gt;&lt;/span&gt;" style="html=1;whiteSpace=wrap;" vertex="1" parent="1">
          <mxGeometry x="555" y="620" width="110" height="50" as="geometry" />
        </mxCell>
        <mxCell id="lx61-Ug0AsFX759e72W0-17" style="edgeStyle=orthogonalEdgeStyle;rounded=0;orthogonalLoop=1;jettySize=auto;html=1;exitX=0.5;exitY=1;exitDx=0;exitDy=0;" edge="1" parent="1">
          <mxGeometry relative="1" as="geometry">
            <mxPoint x="950" y="530" as="sourcePoint" />
            <mxPoint x="950" y="530" as="targetPoint" />
          </mxGeometry>
        </mxCell>
        <mxCell id="lx61-Ug0AsFX759e72W0-23" value="&lt;font style=&quot;padding: 0px; margin: 0px; vertical-align: inherit;&quot;&gt;&lt;font style=&quot;vertical-align: inherit;&quot;&gt;&lt;font style=&quot;vertical-align: inherit;&quot;&gt;&lt;font style=&quot;vertical-align: inherit;&quot;&gt;&lt;font style=&quot;vertical-align: inherit;&quot;&gt;6. Notificar usuario&lt;/font&gt;&lt;/font&gt;&lt;/font&gt;&lt;/font&gt;&lt;/font&gt;" style="text;whiteSpace=wrap;html=1;" vertex="1" parent="1">
          <mxGeometry x="710" y="485" width="200" height="40" as="geometry" />
        </mxCell>
        <mxCell id="lx61-Ug0AsFX759e72W0-45" value="&lt;font style=&quot;padding: 0px; margin: 0px; vertical-align: inherit;&quot;&gt;&lt;font style=&quot;vertical-align: inherit;&quot;&gt;&lt;font style=&quot;vertical-align: inherit;&quot;&gt;&amp;nbsp;5. Confirmaci칩n de Edici칩n&lt;/font&gt;&lt;/font&gt;&lt;/font&gt;" style="text;whiteSpace=wrap;html=1;" vertex="1" parent="1">
          <mxGeometry x="365" y="544" width="180" height="40" as="geometry" />
        </mxCell>
        <mxCell id="lx61-Ug0AsFX759e72W0-46" value="&lt;span style=&quot;text-align: left;&quot;&gt;&lt;font style=&quot;vertical-align: inherit;&quot;&gt;&lt;font style=&quot;vertical-align: inherit;&quot;&gt;&amp;nbsp; &amp;nbsp;:Notificaci칩n&lt;/font&gt;&lt;/font&gt;&lt;/span&gt;" style="html=1;whiteSpace=wrap;" vertex="1" parent="1">
          <mxGeometry x="780" y="560" width="110" height="50" as="geometry" />
        </mxCell>
        <mxCell id="lx61-Ug0AsFX759e72W0-49" value="&lt;font style=&quot;forced-color-adjust: none; padding: 0px; margin: 0px; color: rgb(0, 0, 0); font-family: Helvetica; font-size: 12px; font-style: normal; font-variant-ligatures: normal; font-variant-caps: normal; font-weight: 400; letter-spacing: normal; orphans: 2; text-align: left; text-indent: 0px; text-transform: none; widows: 2; word-spacing: 0px; -webkit-text-stroke-width: 0px; white-space: normal; background-color: rgb(236, 236, 236); text-decoration-thickness: initial; text-decoration-style: initial; text-decoration-color: initial; vertical-align: inherit;&quot;&gt;&lt;font style=&quot;forced-color-adjust: none; padding: 0px; margin: 0px; vertical-align: inherit;&quot;&gt;&amp;nbsp; 1. Seleccionar Editar Cuenta&lt;/font&gt;&lt;/font&gt;&lt;br style=&quot;forced-color-adjust: none; padding: 0px; margin: 0px; color: rgb(0, 0, 0); font-family: Helvetica; font-size: 12px; font-style: normal; font-variant-ligatures: normal; font-variant-caps: normal; font-weight: 400; letter-spacing: normal; orphans: 2; text-align: left; text-indent: 0px; text-transform: none; widows: 2; word-spacing: 0px; -webkit-text-stroke-width: 0px; white-space: normal; background-color: rgb(236, 236, 236); text-decoration-thickness: initial; text-decoration-style: initial; text-decoration-color: initial;&quot;&gt;" style="text;whiteSpace=wrap;html=1;" vertex="1" parent="1">
          <mxGeometry x="400" y="230" width="190" height="40" as="geometry" />
        </mxCell>
        <mxCell id="lx61-Ug0AsFX759e72W0-50" value="&lt;font style=&quot;forced-color-adjust: none; padding: 0px; margin: 0px; color: rgb(0, 0, 0); font-family: Helvetica; font-size: 12px; font-style: normal; font-variant-ligatures: normal; font-variant-caps: normal; font-weight: 400; letter-spacing: normal; orphans: 2; text-align: left; text-indent: 0px; text-transform: none; widows: 2; word-spacing: 0px; -webkit-text-stroke-width: 0px; white-space: normal; background-color: rgb(236, 236, 236); text-decoration-thickness: initial; text-decoration-style: initial; text-decoration-color: initial; vertical-align: inherit;&quot;&gt;&lt;font style=&quot;forced-color-adjust: none; padding: 0px; margin: 0px; vertical-align: inherit;&quot;&gt;2. Enviar Datos Editados&lt;/font&gt;&lt;/font&gt;&lt;br style=&quot;forced-color-adjust: none; padding: 0px; margin: 0px; color: rgb(0, 0, 0); font-family: Helvetica; font-size: 12px; font-style: normal; font-variant-ligatures: normal; font-variant-caps: normal; font-weight: 400; letter-spacing: normal; orphans: 2; text-align: left; text-indent: 0px; text-transform: none; widows: 2; word-spacing: 0px; -webkit-text-stroke-width: 0px; white-space: normal; background-color: rgb(236, 236, 236); text-decoration-thickness: initial; text-decoration-style: initial; text-decoration-color: initial;&quot;&gt;" style="text;whiteSpace=wrap;html=1;" vertex="1" parent="1">
          <mxGeometry x="460" y="400" width="170" height="40" as="geometry" />
        </mxCell>
        <mxCell id="lx61-Ug0AsFX759e72W0-51" value="&lt;span style=&quot;color: rgb(0, 0, 0); font-family: Helvetica; font-size: 12px; font-style: normal; font-variant-ligatures: normal; font-variant-caps: normal; font-weight: 400; letter-spacing: normal; orphans: 2; text-align: left; text-indent: 0px; text-transform: none; widows: 2; word-spacing: 0px; -webkit-text-stroke-width: 0px; white-space: normal; background-color: rgb(236, 236, 236); text-decoration-thickness: initial; text-decoration-style: initial; text-decoration-color: initial; display: inline !important; float: none;&quot;&gt;&amp;nbsp; 3. Validar Cambios&lt;/span&gt;" style="text;whiteSpace=wrap;html=1;" vertex="1" parent="1">
          <mxGeometry x="545" y="560" width="140" height="40" as="geometry" />
        </mxCell>
        <mxCell id="lx61-Ug0AsFX759e72W0-52" value="&lt;span style=&quot;color: rgb(0, 0, 0); font-family: Helvetica; font-size: 12px; font-style: normal; font-variant-ligatures: normal; font-variant-caps: normal; font-weight: 400; letter-spacing: normal; orphans: 2; text-align: left; text-indent: 0px; text-transform: none; widows: 2; word-spacing: 0px; -webkit-text-stroke-width: 0px; white-space: normal; background-color: rgb(236, 236, 236); text-decoration-thickness: initial; text-decoration-style: initial; text-decoration-color: initial; display: inline !important; float: none;&quot;&gt;4. Actualizar Informaci칩n&lt;/span&gt;" style="text;whiteSpace=wrap;html=1;" vertex="1" parent="1">
          <mxGeometry x="365" y="610" width="160" height="40" as="geometry" />
        </mxCell>
      </root>
    </mxGraphModel>
  </diagram>
</mxfile>
